<?xml version="1.0" encoding="UTF-8"?>
<svg id="SVGDoc" width="16" height="15" xmlns="http://www.w3.org/2000/svg" version="1.1" xmlns:xlink="http://www.w3.org/1999/xlink" xmlns:avocode="https://avocode.com/" viewBox="0 0 16 15"><defs></defs><desc>Generated with Avocode.</desc><g><g><title>телефон</title><path d="M2.82603,0.22037c1.04402,-0.01019 1.35393,0.5137 1.86182,1.02196c0.52931,0.53 1.05872,1.05865 1.58798,1.58798c0.29677,0.29694 0.46898,0.4342 0.60242,0.91256c0.02737,0.09853 0.07315,0.32548 0.03653,0.47497c-0.1219,0.49739 -0.40663,0.73521 -0.71196,1.0403c-0.17633,0.18278 -0.3528,0.36557 -0.52927,0.54767c-0.11856,0.11891 -0.47644,0.38595 -0.51109,0.54767c0.08057,0.08494 0.1165,0.21064 0.18251,0.31053c0.13312,0.19977 0.29343,0.38867 0.43808,0.58368c0.15907,0.21472 0.3875,0.39071 0.54762,0.60271c0.40764,0.53884 0.99229,1.08923 1.53328,1.49692c0.07837,0.05844 0.1404,0.15968 0.21904,0.2188c0.21936,0.16376 0.42595,0.32004 0.65712,0.47429c0.11751,0.07814 0.2276,0.19977 0.40155,0.2188c0.15875,-0.24054 0.4357,-0.43555 0.63881,-0.63804c0.4222,-0.42264 0.76607,-0.94789 1.44196,-1.11369c0.25658,-0.06319 0.54991,0.03941 0.69365,0.10872c0.61166,0.29626 1.00502,0.84121 1.46027,1.29579c0.38324,0.38391 0.76662,0.76715 1.1499,1.15106c0.17702,0.17667 0.42412,0.34111 0.5294,0.58368c0.06418,0.14813 0.10721,0.33431 0.14603,0.49263c0.04578,0.18686 0.01154,0.51777 -0.03653,0.65707c-0.15518,0.45118 -0.68651,0.83238 -1.00397,1.1497c-0.27457,0.27519 -0.5078,0.58572 -0.87616,0.76715c-0.29045,0.14337 -0.64993,0.20725 -0.98557,0.29218c-0.51787,0.13114 -1.34642,0.08698 -1.82533,-0.03669c-0.10345,-0.01223 -0.20691,-0.02446 -0.31036,-0.03669c-0.3311,-0.09513 -0.6909,-0.15628 -1.00388,-0.29218c-0.47562,-0.20657 -0.94565,-0.41177 -1.38725,-0.65707c-0.24948,-0.13794 -0.49782,-0.33499 -0.74835,-0.47429c-2.14966,-1.19795 -4.05876,-3.19362 -5.25682,-5.34829c-0.1284,-0.23035 -0.29938,-0.46613 -0.43808,-0.69308c-0.18402,-0.30237 -0.29503,-0.62921 -0.43808,-0.9676c-0.51855,-1.22716 -0.8329,-3.1311 -0.14603,-4.45408c0.15953,-0.30781 0.47516,-0.53 0.71182,-0.76647c0.26161,-0.26772 0.52332,-0.53544 0.78493,-0.80316c0.08858,-0.06455 0.21217,-0.13998 0.31027,-0.1821c0.09073,-0.04009 0.20586,-0.01563 0.27374,-0.07339zM2.93553,1.02353c-0.06386,0.04892 -0.15518,0.06251 -0.21904,0.11008c-0.27979,0.28539 -0.55971,0.57145 -0.83954,0.85752c-0.14145,0.14066 -0.35339,0.28335 -0.43808,0.47429c-0.70953,1.59817 0.01685,3.6747 0.69365,4.78227c0.5208,0.85276 1.05881,1.6668 1.64268,2.44617c0.09233,0.12299 0.23598,0.22355 0.32854,0.34654c0.16411,0.21676 0.34918,0.43827 0.56593,0.60203c0.06683,0.05096 0.10002,0.15017 0.1642,0.20045c0.26894,0.21472 0.49393,0.48923 0.76666,0.69376c0.31915,0.24054 0.62448,0.50215 0.94917,0.73045c0.61546,0.43352 1.27533,0.80044 1.95305,1.16873c0.86801,0.47157 2.38458,1.10554 3.77838,0.72978c0.21767,-0.05844 0.39505,-0.06115 0.58411,-0.14609c0.24957,-0.11144 0.40384,-0.31257 0.58411,-0.49263c0.29205,-0.28607 0.58411,-0.57213 0.87616,-0.8582c0.03136,-0.04349 0.03763,-0.09037 0.07301,-0.12774c0.00458,-0.69104 -0.3192,-0.7753 -0.65712,-1.11369c-0.11559,-0.11483 -0.213,-0.24937 -0.32858,-0.36421c-0.35898,-0.35945 -0.73618,-0.70056 -1.0952,-1.05933c-0.16946,-0.16919 -0.52643,-0.66454 -0.78484,-0.69376c-0.22966,-0.1393 -0.58168,0.2718 -0.67543,0.36557c-0.36493,0.35877 -0.73013,0.71754 -1.0952,1.07632c-0.10529,0.106 -0.30679,0.38799 -0.45625,0.41993c-0.10291,-0.07474 -0.2796,-0.05436 -0.4016,-0.10872c-0.23492,-0.10464 -0.48555,-0.25617 -0.6936,-0.40226c-1.04727,-0.73521 -2.13995,-1.75309 -2.90222,-2.77437c-0.39391,-0.52797 -0.94803,-1.00837 -1.05872,-1.80677c0.23964,-0.15764 0.46957,-0.46953 0.67543,-0.67542c0.35056,-0.35062 0.71356,-0.68357 1.04041,-1.05865c0.01213,0 0.02435,0 0.03648,0c0.10666,-0.12571 0.12337,-0.31393 0.10954,-0.51166c-0.0537,-0.04213 -0.06798,-0.10804 -0.10954,-0.16376c-0.12071,-0.16308 -0.3447,-0.3445 -0.49278,-0.49263c-0.48669,-0.47429 -0.97353,-0.94993 -1.46027,-1.42422c-0.30327,-0.30305 -0.51027,-0.72842 -1.11351,-0.72978z" fill="#737373" fill-opacity="1"></path><path d="M2.82603,0.22037c1.04402,-0.01019 1.35393,0.5137 1.86182,1.02196c0.52931,0.53 1.05872,1.05865 1.58798,1.58798c0.29677,0.29694 0.46898,0.4342 0.60242,0.91256c0.02737,0.09853 0.07315,0.32548 0.03653,0.47497c-0.1219,0.49739 -0.40663,0.73521 -0.71196,1.0403c-0.17633,0.18278 -0.3528,0.36557 -0.52927,0.54767c-0.11856,0.11891 -0.47644,0.38595 -0.51109,0.54767c0.08057,0.08494 0.1165,0.21064 0.18251,0.31053c0.13312,0.19977 0.29343,0.38867 0.43808,0.58368c0.15907,0.21472 0.3875,0.39071 0.54762,0.60271c0.40764,0.53884 0.99229,1.08923 1.53328,1.49692c0.07837,0.05844 0.1404,0.15968 0.21904,0.2188c0.21936,0.16376 0.42595,0.32004 0.65712,0.47429c0.11751,0.07814 0.2276,0.19977 0.40155,0.2188c0.15875,-0.24054 0.4357,-0.43555 0.63881,-0.63804c0.4222,-0.42264 0.76607,-0.94789 1.44196,-1.11369c0.25658,-0.06319 0.54991,0.03941 0.69365,0.10872c0.61166,0.29626 1.00502,0.84121 1.46027,1.29579c0.38324,0.38391 0.76662,0.76715 1.1499,1.15106c0.17702,0.17667 0.42412,0.34111 0.5294,0.58368c0.06418,0.14813 0.10721,0.33431 0.14603,0.49263c0.04578,0.18686 0.01154,0.51777 -0.03653,0.65707c-0.15518,0.45118 -0.68651,0.83238 -1.00397,1.1497c-0.27457,0.27519 -0.5078,0.58572 -0.87616,0.76715c-0.29045,0.14337 -0.64993,0.20725 -0.98557,0.29218c-0.51787,0.13114 -1.34642,0.08698 -1.82533,-0.03669c-0.10345,-0.01223 -0.20691,-0.02446 -0.31036,-0.03669c-0.3311,-0.09513 -0.6909,-0.15628 -1.00388,-0.29218c-0.47562,-0.20657 -0.94565,-0.41177 -1.38725,-0.65707c-0.24948,-0.13794 -0.49782,-0.33499 -0.74835,-0.47429c-2.14966,-1.19795 -4.05876,-3.19362 -5.25682,-5.34829c-0.1284,-0.23035 -0.29938,-0.46613 -0.43808,-0.69308c-0.18402,-0.30237 -0.29503,-0.62921 -0.43808,-0.9676c-0.51855,-1.22716 -0.8329,-3.1311 -0.14603,-4.45408c0.15953,-0.30781 0.47516,-0.53 0.71182,-0.76647c0.26161,-0.26772 0.52332,-0.53544 0.78493,-0.80316c0.08858,-0.06455 0.21217,-0.13998 0.31027,-0.1821c0.09073,-0.04009 0.20586,-0.01563 0.27374,-0.07339zM2.93553,1.02353c-0.06386,0.04892 -0.15518,0.06251 -0.21904,0.11008c-0.27979,0.28539 -0.55971,0.57145 -0.83954,0.85752c-0.14145,0.14066 -0.35339,0.28335 -0.43808,0.47429c-0.70953,1.59817 0.01685,3.6747 0.69365,4.78227c0.5208,0.85276 1.05881,1.6668 1.64268,2.44617c0.09233,0.12299 0.23598,0.22355 0.32854,0.34654c0.16411,0.21676 0.34918,0.43827 0.56593,0.60203c0.06683,0.05096 0.10002,0.15017 0.1642,0.20045c0.26894,0.21472 0.49393,0.48923 0.76666,0.69376c0.31915,0.24054 0.62448,0.50215 0.94917,0.73045c0.61546,0.43352 1.27533,0.80044 1.95305,1.16873c0.86801,0.47157 2.38458,1.10554 3.77838,0.72978c0.21767,-0.05844 0.39505,-0.06115 0.58411,-0.14609c0.24957,-0.11144 0.40384,-0.31257 0.58411,-0.49263c0.29205,-0.28607 0.58411,-0.57213 0.87616,-0.8582c0.03136,-0.04349 0.03763,-0.09037 0.07301,-0.12774c0.00458,-0.69104 -0.3192,-0.7753 -0.65712,-1.11369c-0.11559,-0.11483 -0.213,-0.24937 -0.32858,-0.36421c-0.35898,-0.35945 -0.73618,-0.70056 -1.0952,-1.05933c-0.16946,-0.16919 -0.52643,-0.66454 -0.78484,-0.69376c-0.22966,-0.1393 -0.58168,0.2718 -0.67543,0.36557c-0.36493,0.35877 -0.73013,0.71754 -1.0952,1.07632c-0.10529,0.106 -0.30679,0.38799 -0.45625,0.41993c-0.10291,-0.07474 -0.2796,-0.05436 -0.4016,-0.10872c-0.23492,-0.10464 -0.48555,-0.25617 -0.6936,-0.40226c-1.04727,-0.73521 -2.13995,-1.75309 -2.90222,-2.77437c-0.39391,-0.52797 -0.94803,-1.00837 -1.05872,-1.80677c0.23964,-0.15764 0.46957,-0.46953 0.67543,-0.67542c0.35056,-0.35062 0.71356,-0.68357 1.04041,-1.05865c0.01213,0 0.02435,0 0.03648,0c0.10666,-0.12571 0.12337,-0.31393 0.10954,-0.51166c-0.0537,-0.04213 -0.06798,-0.10804 -0.10954,-0.16376c-0.12071,-0.16308 -0.3447,-0.3445 -0.49278,-0.49263c-0.48669,-0.47429 -0.97353,-0.94993 -1.46027,-1.42422c-0.30327,-0.30305 -0.51027,-0.72842 -1.11351,-0.72978z" fill="#7eb252" fill-opacity="1"></path></g></g></svg>
